<?xml version="1.0" encoding="iso-8859-1"?>
<!-- Generator: Adobe Illustrator 16.0.0, SVG Export Plug-In . SVG Version: 6.00 Build 0)  -->
<!DOCTYPE svg PUBLIC "-//W3C//DTD SVG 1.1//EN" "http://www.w3.org/Graphics/SVG/1.1/DTD/svg11.dtd">
<svg xmlns="http://www.w3.org/2000/svg" xmlns:xlink="http://www.w3.org/1999/xlink" version="1.1" id="Capa_1" x="0px" y="0px" width="512px" height="512px" viewBox="0 0 349.908 349.909" style="enable-background:new 0 0 349.908 349.909;" xml:space="preserve">
<g>
	<g>
		<g id="Layer_5_24_">
			<g>
				<path d="M326.028,223.54c-0.003,0-0.004,0-0.006,0c-2.593,0-5.322-0.167-8.184-0.469c-0.689-0.073-2.119-0.133-2.789,1.02      c-9.573,17.916-25.66,28.549-44.773,28.549H79.634c-19.113,0-35.376-10.945-44.952-28.862c-0.523-0.859-1.586-0.816-2.116-0.758      c-3.04,0.334-5.939,0.521-8.679,0.521c-1.778,0-3.468-0.084-5.076-0.243c-1.772-0.176-3.902,0.026-3.902,1.276      c7.296,29.128,28.768,48.297,55.521,48.297h209.052c26.754,0,48.83-19.293,56.128-48.418c0.299-1.623-1.234-1.59-2.142-1.453      C331.142,223.352,328.669,223.539,326.028,223.54z" fill="#454949"/>
				<g>
					<path d="M63.607,103.295c-0.885-1.536-2.331-0.822-3.172-0.379C23.418,122.362,0,151.065,0,183.088       c0,40.992,38.373,24.607,94.527,11.078c0.81-0.195,2.174-1.136,1.543-3.013L63.607,103.295z" fill="#454949"/>
					<path d="M189.025,79.281v102.75c0,1.375,0.95,1.518,1.429,1.547c21.702,1.337,42.266,5.261,60.967,9.646       c0.854,0.2,2.531,0.475,3.264-0.95l38.895-84.686c0.791-1.475-0.404-2.672-1.06-3.032       C265.257,89.551,230.154,79.688,191.371,77.5C190.589,77.456,189.025,77.499,189.025,79.281z" fill="#454949"/>
					<path d="M176.025,79.031c0-1.653-2.019-1.995-2.491-1.993c-35.705,0.172-68.853,6.832-96.416,18.124       c-0.772,0.316-2.084,1.348-1.514,3.095l33.604,90.945c0.701,1.537,2.251,1.143,2.912,1.004       c19.247-4.002,40.406-7.072,62.239-7.182c0.41-0.002,1.667,0.006,1.667-1.119L176.025,79.031L176.025,79.031z" fill="#454949"/>
					<path d="M304.505,114.94c-10.647,19.907-37.227,81.003-37.227,81.003c-0.41,0.919,0.555,1.319,1.061,1.449       c49.018,12.528,81.569,23.448,81.569-14.307c0-26.411-15.936-50.561-42.28-69.125       C306.958,113.493,305.327,113.406,304.505,114.94z" fill="#454949"/>
				</g>
			</g>
		</g>
	</g>
</g>
<g>
</g>
<g>
</g>
<g>
</g>
<g>
</g>
<g>
</g>
<g>
</g>
<g>
</g>
<g>
</g>
<g>
</g>
<g>
</g>
<g>
</g>
<g>
</g>
<g>
</g>
<g>
</g>
<g>
</g>
</svg>
